<svg width="16" height="17" viewBox="0 0 16 17" fill="none" xmlns="http://www.w3.org/2000/svg">
<path d="M4.17082 7.47583H5.50415V8.80916H4.17082V7.47583ZM13.5042 4.1425V13.4758C13.5042 14.2092 12.9042 14.8092 12.1708 14.8092H2.83748C2.48386 14.8092 2.14472 14.6687 1.89467 14.4186C1.64463 14.1686 1.50415 13.8295 1.50415 13.4758L1.51082 4.1425C1.51082 3.40916 2.09748 2.80916 2.83748 2.80916H3.50415V1.47583H4.83748V2.80916H10.1708V1.47583H11.5042V2.80916H12.1708C12.9042 2.80916 13.5042 3.40916 13.5042 4.1425ZM2.83748 5.47583H12.1708V4.1425H2.83748V5.47583ZM12.1708 13.4758V6.80916H2.83748V13.4758H12.1708ZM9.50415 8.80916H10.8375V7.47583H9.50415V8.80916ZM6.83748 8.80916H8.17082V7.47583H6.83748V8.80916Z" fill="#BDBDBD"/>
</svg>
