<svg width="18" height="22" viewBox="0 0 18 22" fill="none" xmlns="http://www.w3.org/2000/svg">
<path d="M9 0C6.61392 0.00270323 4.32637 0.914156 2.63915 2.53442C0.951939 4.15468 0.0028245 6.35146 9.57508e-06 8.64286C-0.00284824 10.5154 0.634084 12.3371 1.8131 13.8286C1.8131 13.8286 2.05855 14.1389 2.09864 14.1837L9 22L15.9046 14.1798C15.9406 14.1381 16.1869 13.8286 16.1869 13.8286L16.1877 13.8262C17.3661 12.3354 18.0028 10.5145 18 8.64286C17.9972 6.35146 17.0481 4.15468 15.3608 2.53442C13.6736 0.914156 11.3861 0.00270323 9 0ZM9 11.7857C8.35272 11.7857 7.71997 11.6014 7.18177 11.256C6.64358 10.9107 6.2241 10.4199 5.9764 9.84558C5.72869 9.27129 5.66388 8.63937 5.79016 8.02972C5.91644 7.42006 6.22814 6.86006 6.68583 6.42052C7.14353 5.98098 7.72668 5.68166 8.36152 5.56039C8.99637 5.43912 9.6544 5.50136 10.2524 5.73924C10.8504 5.97711 11.3616 6.37994 11.7212 6.89678C12.0808 7.41362 12.2727 8.02126 12.2727 8.64286C12.2716 9.47608 11.9265 10.2749 11.313 10.864C10.6994 11.4532 9.86765 11.7847 9 11.7857Z" fill="white"/>
</svg>
