<svg width="20" height="18" viewBox="0 0 20 18" fill="none" xmlns="http://www.w3.org/2000/svg">
<path d="M3.33333 0.5C2.44928 0.5 1.60143 0.858213 0.976311 1.49584C0.351189 2.13346 0 2.99826 0 3.9V4.2417L10 9.7344L20 4.2434V3.9C20 2.99826 19.6488 2.13346 19.0237 1.49584C18.3986 0.858213 17.5507 0.5 16.6667 0.5H3.33333ZM20 6.1729L10.395 11.448C10.2736 11.5147 10.1379 11.5496 10 11.5496C9.86212 11.5496 9.7264 11.5147 9.605 11.448L0 6.1729V14.1C0 15.0017 0.351189 15.8665 0.976311 16.5042C1.60143 17.1418 2.44928 17.5 3.33333 17.5H16.6667C17.5507 17.5 18.3986 17.1418 19.0237 16.5042C19.6488 15.8665 20 15.0017 20 14.1V6.1729Z" fill="white"/>
</svg>
