<svg width="20" height="20" viewBox="0 0 20 20" fill="none" xmlns="http://www.w3.org/2000/svg">
<path d="M18.6481 14.397L16.7059 12.4547C16.3544 12.1034 15.9141 11.8541 15.432 11.7334C14.9499 11.6126 14.4441 11.625 13.9685 11.7691C13.4929 11.9133 13.0654 12.1839 12.7315 12.5519C12.3976 12.92 12.1698 13.3718 12.0725 13.8592C8.86976 13.2603 5.75476 10.1581 5.56087 7.3853C6.10536 7.28514 6.60646 7.02161 6.99754 6.62975C7.51246 6.11476 7.80173 5.41633 7.80173 4.68808C7.80173 3.95983 7.51246 3.2614 6.99754 2.74641L5.05587 0.80419C4.54089 0.289272 3.84246 0 3.11421 0C2.38596 0 1.68753 0.289272 1.17254 0.80419C-4.65301 6.62975 12.8225 24.1053 18.6481 18.2797C19.1627 17.7647 19.4518 17.0664 19.4518 16.3384C19.4518 15.6103 19.1627 14.912 18.6481 14.397Z" fill="white"/>
</svg>
